<?xml version="1.0" standalone="no"?>
<!DOCTYPE svg PUBLIC "-//W3C//DTD SVG 20010904//EN"
 "http://www.w3.org/TR/2001/REC-SVG-20010904/DTD/svg10.dtd">
<svg version="1.0" xmlns="http://www.w3.org/2000/svg"
 width="780.000000pt" height="780.000000pt" viewBox="0 0 780.000000 780.000000"
 preserveAspectRatio="xMidYMid meet">
<metadata>
Created by potrace 1.14, written by Peter Selinger 2001-2017
</metadata>
<g transform="translate(0.000000,780.000000) scale(0.100000,-0.100000)"
fill="#000000" stroke="none">
<path d="M0 3900 l0 -3900 3900 0 3900 0 0 3900 0 3900 -3900 0 -3900 0 0
-3900z m3765 1841 c451 -509 1368 -1526 1376 -1526 8 0 453 493 1144 1268
l290 326 119 0 119 1 -6 -457 c-4 -252 -7 -1085 -7 -1850 l0 -1393 -366 0
-365 0 6 1022 7 1023 -69 -70 c-39 -38 -249 -258 -467 -487 -219 -230 -401
-418 -406 -418 -4 0 -214 216 -465 480 -252 264 -461 480 -466 480 -5 0 -9
-439 -9 -1015 l0 -1015 -365 0 -365 0 0 1850 0 1850 118 0 117 -1 60 -68z
m-2083 -1446 l-5 -1455 582 0 581 0 0 -365 0 -365 -940 0 -940 0 0 1820 0
1820 363 0 363 0 -4 -1455z"/>
</g>
</svg>
